<?xml version="1.0" encoding="UTF-8"?>
<svg xmlns="http://www.w3.org/2000/svg" xmlns:xlink="http://www.w3.org/1999/xlink" version="1.1" id="Capa_1" x="0px" y="0px" viewBox="0 0 511.12 511.12" style="enable-background:new 0 0 511.12 511.12;" xml:space="preserve" width="512" height="512">
<g>
	<g>
		<path style="fill:none;stroke:#000000;stroke-width:15;stroke-miterlimit:10;" d="M33.315,511.12&#10;&#9;&#9;&#9;c0-31.88,55.91-114.56,55.91-114.56c-44.21-7.5-56.98-32.76-56.98-50.72c4.94,0,9.69-1.3,13.2-3.75c3.52-2.45,5.8-6.05,5.8-10.62&#10;&#9;&#9;&#9;c0-7.94-6.43-14.37-14.37-14.37h-8.9v-22.08c0,0-20.26-1.55-20.26-8.53c0-22.47,15.68-45.4,15.68-45.4&#10;&#9;&#9;&#9;c0-51.78,11.55-98.72,40.28-130.09"/>
		<path style="fill:none;stroke:#000000;stroke-width:15;stroke-miterlimit:10;" d="M74.535,100.6&#10;&#9;&#9;&#9;c22.12-18.56,52.33-29.48,92.34-29.48h0.01c39.88,0,78.18,11.65,106.38,35.3"/>
		<path style="fill:none;stroke:#000000;stroke-width:15;stroke-miterlimit:10;" d="M265.305,511.12&#10;&#9;&#9;&#9;c0-52.58-31.74-87.24-31.74-114.56c0-25.01,25.74-36.31,48.99-64.37"/>
		<path style="fill:none;stroke:#000000;stroke-width:15;stroke-miterlimit:10;" d="M317.745,240.78&#10;&#9;&#9;&#9;c0.89-8.91,1.37-18.52,1.37-28.91c0-9.05-0.67-17.65-1.94-25.82v-0.01"/>
		
			<line style="fill:none;stroke:#000000;stroke-width:15;stroke-miterlimit:10;" x1="89.224" y1="396.56" x2="233.564" y2="396.56"/>
		<path style="fill:none;stroke:#000000;stroke-width:15;stroke-miterlimit:10;" d="M99.701,511.12v-26.423&#10;&#9;&#9;&#9;c0-30.824,24.988-55.812,55.812-55.812h0c30.824,0,55.812,24.988,55.812,55.812v26.423"/>
		<g>
			<path style="fill:none;stroke:#000000;stroke-width:15;stroke-miterlimit:10;" d="M176.095,144.423l13.816-15.303&#10;&#9;&#9;&#9;&#9;c11.576,4.795,11.606,4.807,23.182,9.602l-1.052,20.59c5.58,5.58,8.398,8.398,13.978,13.978l20.59-1.052&#10;&#9;&#9;&#9;&#9;c4.795,11.576,4.807,11.606,9.602,23.182l-15.303,13.816c0,7.891,0,11.877,0,19.767l15.303,13.816&#10;&#9;&#9;&#9;&#9;c-4.795,11.576-4.807,11.606-9.602,23.182l-20.59-1.052c-5.58,5.58-8.398,8.398-13.978,13.978l1.052,20.59&#10;&#9;&#9;&#9;&#9;c-11.576,4.795-11.606,4.807-23.182,9.602l-13.816-15.303c-7.891,0-11.877,0-19.767,0l-13.816,15.303&#10;&#9;&#9;&#9;&#9;c-11.576-4.795-11.606-4.807-23.182-9.602l1.052-20.59c-5.58-5.58-8.398-8.398-13.978-13.978l-20.59,1.052&#10;&#9;&#9;&#9;&#9;c-4.795-11.576-4.807-11.606-9.602-23.182l15.303-13.816c0-7.891,0-11.877,0-19.767l-15.303-13.816&#10;&#9;&#9;&#9;&#9;c4.795-11.576,4.807-11.606,9.602-23.182l20.59,1.052c5.58-5.58,8.398-8.398,13.978-13.978l-1.052-20.59&#10;&#9;&#9;&#9;&#9;c11.576-4.795,11.606-4.807,23.182-9.602l13.816,15.303C164.218,144.423,168.204,144.423,176.095,144.423z"/>
			<circle style="fill:none;stroke:#000000;stroke-width:15;stroke-miterlimit:10;" cx="166.211" cy="219.12" r="30"/>
		</g>
		<path style="fill:none;stroke:#000000;stroke-width:15;stroke-miterlimit:10;" d="M360.405,7.5h113c16.57,0,30,13.43,30,30v120&#10;&#9;&#9;&#9;c0,16.57-13.43,30-30,30h-147c-16.57,0-30-13.43-30-30v-30h-40l40-50v-40c0-16.57,13.43-30,30-30h19"/>
		<path style="fill:none;stroke:#000000;stroke-width:15;stroke-miterlimit:10;" d="M450.335,419.5h23.07c16.57,0,30-13.43,30-30&#10;&#9;&#9;&#9;v-120c0-16.57-13.43-30-30-30h-147c-16.57,0-30,13.43-30,30v30h-40l40,50v40c0,16.57,13.43,30,30,30h108.93"/>
		<g>
			
				<line style="fill:none;stroke:#000000;stroke-width:15;stroke-miterlimit:10;" x1="383.907" y1="267.003" x2="383.907" y2="321.003"/>
			
				<line style="fill:none;stroke:#000000;stroke-width:15;stroke-miterlimit:10;" x1="413.907" y1="267.003" x2="413.907" y2="321.003"/>
			<path style="fill:none;stroke:#000000;stroke-width:15;stroke-miterlimit:10;" d="M338.907,314.003L338.907,314.003&#10;&#9;&#9;&#9;&#9;c-8.284,0-15-6.716-15-15v-10c0-8.284,6.716-15,15-15h0c8.284,0,15,6.716,15,15v10&#10;&#9;&#9;&#9;&#9;C353.907,307.287,347.191,314.003,338.907,314.003z"/>
			<path style="fill:none;stroke:#000000;stroke-width:15;stroke-miterlimit:10;" d="M458.907,314.003L458.907,314.003&#10;&#9;&#9;&#9;&#9;c-8.284,0-15-6.716-15-15v-10c0-8.284,6.716-15,15-15h0c8.284,0,15,6.716,15,15v10&#10;&#9;&#9;&#9;&#9;C473.907,307.287,467.191,314.003,458.907,314.003z"/>
			
				<line style="fill:none;stroke:#000000;stroke-width:15;stroke-miterlimit:10;" x1="473.907" y1="338.003" x2="473.907" y2="392.003"/>
			
				<line style="fill:none;stroke:#000000;stroke-width:15;stroke-miterlimit:10;" x1="443.907" y1="338.003" x2="443.907" y2="392.003"/>
			<path style="fill:none;stroke:#000000;stroke-width:15;stroke-miterlimit:10;" d="M338.907,385.003L338.907,385.003&#10;&#9;&#9;&#9;&#9;c-8.284,0-15-6.716-15-15v-10c0-8.284,6.716-15,15-15h0c8.284,0,15,6.716,15,15v10&#10;&#9;&#9;&#9;&#9;C353.907,378.287,347.191,385.003,338.907,385.003z"/>
			<path style="fill:none;stroke:#000000;stroke-width:15;stroke-miterlimit:10;" d="M398.907,385.003L398.907,385.003&#10;&#9;&#9;&#9;&#9;c-8.284,0-15-6.716-15-15v-10c0-8.284,6.716-15,15-15h0c8.284,0,15,6.716,15,15v10&#10;&#9;&#9;&#9;&#9;C413.907,378.287,407.191,385.003,398.907,385.003z"/>
		</g>
		<g>
			
				<line style="fill:none;stroke:#000000;stroke-width:15;stroke-miterlimit:10;" x1="401.905" y1="49.524" x2="401.905" y2="142.482"/>
			
				<line style="fill:none;stroke:#000000;stroke-width:15;stroke-miterlimit:10;" x1="371.905" y1="69.003" x2="371.905" y2="123.003"/>
			
				<line style="fill:none;stroke:#000000;stroke-width:15;stroke-miterlimit:10;" x1="341.905" y1="81.003" x2="341.905" y2="111.003"/>
			<g>
				
					<line style="fill:none;stroke:#000000;stroke-width:15;stroke-miterlimit:10;" x1="431.905" y1="69.003" x2="431.905" y2="123.003"/>
				
					<line style="fill:none;stroke:#000000;stroke-width:15;stroke-miterlimit:10;" x1="461.905" y1="81.003" x2="461.905" y2="111.003"/>
			</g>
		</g>
	</g>
	<g>
		
			<line style="fill:none;stroke:#000000;stroke-width:15;stroke-miterlimit:10;" x1="155.513" y1="451.12" x2="155.513" y2="466.12"/>
		
			<line style="fill:none;stroke:#000000;stroke-width:15;stroke-miterlimit:10;" x1="155.513" y1="481.12" x2="155.513" y2="496.12"/>
	</g>
</g>















</svg>
